<svg width="48" height="48" viewBox="0 0 48 48" fill="none" xmlns="http://www.w3.org/2000/svg">
<g opacity="0.5">
<path d="M27.1111 24.1111C27.1111 24.7264 26.9286 25.3279 26.5868 25.8396C26.2449 26.3512 25.7591 26.7499 25.1906 26.9854C24.6221 27.2209 23.9965 27.2825 23.3931 27.1624C22.7896 27.0424 22.2352 26.7461 21.8001 26.311C21.365 25.8759 21.0687 25.3216 20.9487 24.7181C20.8286 24.1146 20.8902 23.489 21.1257 22.9205C21.3612 22.3521 21.7599 21.8662 22.2716 21.5243C22.7832 21.1825 23.3847 21 24 21C24.8251 21 25.6164 21.3278 26.1999 21.9112C26.7833 22.4947 27.1111 23.286 27.1111 24.1111ZM15.1111 21C14.4958 21 13.8943 21.1825 13.3827 21.5243C12.8711 21.8662 12.4723 22.3521 12.2368 22.9205C12.0013 23.489 11.9397 24.1146 12.0598 24.7181C12.1798 25.3216 12.4761 25.8759 12.9112 26.311C13.3463 26.7461 13.9007 27.0424 14.5042 27.1624C15.1077 27.2825 15.7332 27.2209 16.3017 26.9854C16.8702 26.7499 17.3561 26.3512 17.6979 25.8396C18.0398 25.3279 18.2222 24.7264 18.2222 24.1111C18.2222 23.286 17.8944 22.4947 17.311 21.9112C16.7276 21.3278 15.9362 21 15.1111 21ZM32.8889 21C32.2736 21 31.6721 21.1825 31.1604 21.5243C30.6488 21.8662 30.2501 22.3521 30.0146 22.9205C29.7791 23.489 29.7175 24.1146 29.8376 24.7181C29.9576 25.3216 30.2539 25.8759 30.689 26.311C31.1241 26.7461 31.6784 27.0424 32.2819 27.1624C32.8854 27.2825 33.511 27.2209 34.0795 26.9854C34.6479 26.7499 35.1338 26.3512 35.4757 25.8396C35.8175 25.3279 36 24.7264 36 24.1111C36 23.7026 35.9195 23.298 35.7632 22.9205C35.6068 22.5431 35.3777 22.2001 35.0888 21.9112C34.7999 21.6223 34.4569 21.3932 34.0795 21.2368C33.702 21.0805 33.2974 21 32.8889 21Z" fill="#FFC01E"/>
</g>
</svg>
