<svg width="40" height="40" viewBox="0 0 40 40" fill="none" xmlns="http://www.w3.org/2000/svg">
<path d="M0.461562 21.1084L10.894 31.5409C11.188 31.8348 11.5867 32 12.0024 32C12.4182 32 12.8169 31.8348 13.1109 31.5409C13.4049 31.2469 13.57 30.8482 13.57 30.4324C13.57 30.0167 13.4049 29.618 13.1109 29.324L3.78559 20.0013L13.1083 10.676C13.2538 10.5305 13.3693 10.3577 13.4481 10.1675C13.5269 9.97728 13.5674 9.77344 13.5674 9.56758C13.5674 9.36172 13.5269 9.15788 13.4481 8.96769C13.3693 8.7775 13.2538 8.6047 13.1083 8.45913C12.9627 8.31357 12.7899 8.1981 12.5997 8.11932C12.4095 8.04055 12.2057 8 11.9998 8C11.794 8 11.5901 8.04055 11.3999 8.11932C11.2097 8.1981 11.0369 8.31357 10.8914 8.45913L0.458955 18.8916C0.313239 19.0371 0.197688 19.21 0.11893 19.4003C0.0401716 19.5906 -0.000244141 19.7946 -1.90735e-06 20.0005C0.000240326 20.2065 0.0411367 20.4104 0.120342 20.6005C0.199548 20.7906 0.315504 20.9632 0.461562 21.1084Z" fill="#FFC01E"/>
</svg>
