<svg width="28" height="24" viewBox="0 0 28 24" fill="none" xmlns="http://www.w3.org/2000/svg">
<path opacity="0.8" d="M26.619 6.40799C26.4416 6.20363 26.224 6.0402 25.9806 5.9285C25.7372 5.8168 25.4735 5.75937 25.2069 5.75999H19.6056C19.6056 4.23235 19.0144 2.76727 17.9622 1.68706C16.91 0.606854 15.4829 0 13.9948 0C12.5068 0 11.0797 0.606854 10.0275 1.68706C8.97524 2.76727 8.38412 4.23235 8.38412 5.75999H2.78275C2.51771 5.76072 2.2558 5.81881 2.01411 5.93047C1.77242 6.04212 1.55637 6.20483 1.38007 6.40799C1.20523 6.61039 1.07403 6.84843 0.995068 7.10652C0.916103 7.3646 0.891154 7.63691 0.921857 7.90558L2.58871 22.3056C2.64277 22.7747 2.86344 23.207 3.20849 23.5196C3.55354 23.8322 3.99876 24.0032 4.45895 24H23.5412C24.0014 24.0032 24.4466 23.8322 24.7917 23.5196C25.1368 23.207 25.3574 22.7747 25.4115 22.3056L27.0783 7.90558C27.1089 7.63682 27.0837 7.36447 27.0046 7.10638C26.9254 6.84829 26.794 6.61029 26.619 6.40799ZM13.9948 1.92C14.9869 1.92 15.9383 2.32457 16.6398 3.0447C17.3412 3.76484 17.7353 4.74156 17.7353 5.75999H10.2544C10.2544 4.74156 10.6484 3.76484 11.3499 3.0447C12.0514 2.32457 13.0028 1.92 13.9948 1.92Z" fill="url(#paint0_linear_176_536)"/>
<defs>
<linearGradient id="paint0_linear_176_536" x1="4.18185" y1="-4.28571" x2="28.5885" y2="34.9755" gradientUnits="userSpaceOnUse">
<stop stop-color="#FFC01E"/>
<stop offset="0.9999" stop-color="#FFA41C"/>
</linearGradient>
</defs>
</svg>
