<svg width="28" height="28" viewBox="0 0 28 28" fill="none" xmlns="http://www.w3.org/2000/svg">
<path d="M23.0103 11.1024L12.9782 21.1336C12.8622 21.2497 12.7243 21.3418 12.5727 21.4046C12.421 21.4675 12.2584 21.4998 12.0942 21.4998C11.9301 21.4998 11.7675 21.4675 11.6158 21.4046C11.4641 21.3418 11.3263 21.2497 11.2103 21.1336L5.61495 15.5086C5.38094 15.2742 5.24951 14.9566 5.24951 14.6254C5.24951 14.2942 5.38094 13.9766 5.61495 13.7422L7.48995 11.8672C7.72356 11.6335 8.0402 11.5019 8.37062 11.501C8.70105 11.5001 9.01837 11.6301 9.25323 11.8625L12.1157 14.618L12.1243 14.6266L19.3689 7.48829C19.6031 7.255 19.9203 7.12402 20.2509 7.12402C20.5815 7.12402 20.8986 7.255 21.1329 7.48829L23.0079 9.32892C23.125 9.44494 23.218 9.58297 23.2815 9.73507C23.345 9.88716 23.3778 10.0503 23.378 10.2151C23.3783 10.38 23.3459 10.5432 23.2828 10.6955C23.2196 10.8477 23.127 10.986 23.0103 11.1024Z" fill="#FFC01E"/>
</svg>
