<svg width="36" height="39" viewBox="0 0 36 39" fill="none" xmlns="http://www.w3.org/2000/svg">
<path d="M36 7.5C36 7.89782 35.842 8.27936 35.5607 8.56066C35.2794 8.84196 34.8978 9 34.5 9H33V36C33 36.7957 32.6839 37.5587 32.1213 38.1213C31.5587 38.6839 30.7956 39 30 39H6C5.20435 39 4.44129 38.6839 3.87868 38.1213C3.31607 37.5587 3 36.7957 3 36V9H1.5C1.10218 9 0.720645 8.84196 0.43934 8.56066C0.158036 8.27936 0 7.89782 0 7.5C0 7.10218 0.158036 6.72064 0.43934 6.43934C0.720645 6.15804 1.10218 6 1.5 6H34.5C34.8978 6 35.2794 6.15804 35.5607 6.43934C35.842 6.72064 36 7.10218 36 7.5ZM10.5 3H25.5C25.8978 3 26.2794 2.84196 26.5607 2.56066C26.842 2.27936 27 1.89782 27 1.5C27 1.10218 26.842 0.720644 26.5607 0.43934C26.2794 0.158035 25.8978 0 25.5 0H10.5C10.1022 0 9.72064 0.158035 9.43934 0.43934C9.15804 0.720644 9 1.10218 9 1.5C9 1.89782 9.15804 2.27936 9.43934 2.56066C9.72064 2.84196 10.1022 3 10.5 3Z" fill="white"/>
</svg>
