<svg width="26" height="22" viewBox="0 0 26 22" fill="none" xmlns="http://www.w3.org/2000/svg">
<path opacity="0.6" d="M25.0924 7.91696C24.5311 15.2085 13.8771 21.0281 13.4121 21.2779C13.2861 21.3457 13.1453 21.3812 13.0022 21.3812C12.8591 21.3812 12.7183 21.3457 12.5923 21.2779C12.1132 21.0216 0.887146 14.8927 0.887146 7.32213C0.886845 6.10745 1.2165 4.91551 1.8409 3.87361C2.4653 2.8317 3.36099 1.97898 4.4323 1.40651C5.50361 0.834039 6.71031 0.563327 7.9235 0.623289C9.1367 0.68325 10.3108 1.07163 11.3205 1.74695C11.374 1.78243 11.4189 1.82937 11.452 1.88437C11.4851 1.93937 11.5056 2.00105 11.5119 2.06493C11.5182 2.12882 11.5102 2.19331 11.4885 2.25373C11.4668 2.31414 11.432 2.36897 11.3864 2.41424L9.94154 3.8613C9.7794 4.02354 9.68832 4.24352 9.68832 4.47289C9.68832 4.70226 9.7794 4.92224 9.94154 5.08449L13.4597 8.60263L11.1615 10.8911C11.0778 10.9706 11.0108 11.0661 10.9646 11.172C10.9183 11.2778 10.8937 11.3918 10.8923 11.5073C10.8908 11.6228 10.9124 11.7374 10.956 11.8443C10.9995 11.9513 11.064 12.0485 11.1456 12.1302C11.2273 12.2118 11.3245 12.2763 11.4314 12.3198C11.5384 12.3633 11.653 12.385 11.7685 12.3835C11.884 12.382 11.998 12.3574 12.1038 12.3112C12.2096 12.265 12.3051 12.198 12.3847 12.1143L15.2918 9.20828C15.4539 9.04604 15.545 8.82605 15.545 8.59668C15.545 8.36732 15.4539 8.14733 15.2918 7.98509L11.7779 4.47019L13.6673 2.58079C14.2938 1.95116 15.0397 1.45306 15.8614 1.11579C16.683 0.778511 17.5638 0.608851 18.4519 0.616775C22.38 0.64165 25.393 4.00081 25.0924 7.91696Z" fill="white"/>
</svg>
