<svg width="28" height="24" viewBox="0 0 28 24" fill="none" xmlns="http://www.w3.org/2000/svg">
<path opacity="0.8" d="M28.0033 7.75183C28.0033 16.5039 15.0265 23.5881 14.4739 23.8806C14.3282 23.959 14.1654 24 14 24C13.8346 24 13.6718 23.959 13.5261 23.8806C12.9735 23.5881 -0.0032959 16.5039 -0.0032959 7.75183C-0.000979431 5.69663 0.816473 3.72626 2.26972 2.27302C3.72297 0.819769 5.69333 0.00231647 7.74853 0C10.3304 0 12.5909 1.11026 14 2.98695C15.4091 1.11026 17.6696 0 20.2515 0C22.3067 0.00231647 24.277 0.819769 25.7303 2.27302C27.1835 3.72626 28.001 5.69663 28.0033 7.75183Z" fill="url(#paint0_linear_49_623)"/>
<defs>
<linearGradient id="paint0_linear_49_623" x1="3.49753" y1="-4.28571" x2="27.1449" y2="36.4053" gradientUnits="userSpaceOnUse">
<stop stop-color="#FFC01E"/>
<stop offset="0.9999" stop-color="#FFA41C"/>
</linearGradient>
</defs>
</svg>
