<svg width="26" height="22" viewBox="0 0 26 22" fill="none" xmlns="http://www.w3.org/2000/svg">
<path d="M25.1129 7.32107C25.1129 14.8916 13.8879 21.0195 13.4099 21.2725C13.2839 21.3403 13.1431 21.3758 13 21.3758C12.8569 21.3758 12.7161 21.3403 12.5901 21.2725C12.1121 21.0195 0.887115 14.8916 0.887115 7.32107C0.889119 5.54332 1.59622 3.83895 2.85328 2.58189C4.11034 1.32482 5.81471 0.617726 7.59247 0.615723C9.82578 0.615723 11.7811 1.5761 13 3.19945C14.2189 1.5761 16.1742 0.615723 18.4076 0.615723C20.1853 0.617726 21.8897 1.32482 23.1467 2.58189C24.4038 3.83895 25.1109 5.54332 25.1129 7.32107Z" fill="white"/>
</svg>
