<svg width="18" height="18" viewBox="0 0 18 18" fill="none" xmlns="http://www.w3.org/2000/svg">
<path d="M17.4001 9.00001C17.4001 9.26734 17.2939 9.52373 17.1049 9.71277C16.9158 9.90181 16.6594 10.008 16.3921 10.008H10.0081V16.392C10.0081 16.6593 9.9019 16.9157 9.71286 17.1048C9.52382 17.2938 9.26744 17.4 9.0001 17.4C8.73276 17.4 8.47637 17.2938 8.28733 17.1048C8.0983 16.9157 7.9921 16.6593 7.9921 16.392V10.008H1.6081C1.34076 10.008 1.08437 9.90181 0.895334 9.71277C0.706297 9.52373 0.600098 9.26734 0.600098 9.00001C0.600098 8.73267 0.706297 8.47628 0.895334 8.28724C1.08437 8.09821 1.34076 7.99201 1.6081 7.99201H7.9921V1.60801C7.9921 1.34067 8.0983 1.08428 8.28733 0.895242C8.47637 0.706206 8.73276 0.600006 9.0001 0.600006C9.26744 0.600006 9.52382 0.706206 9.71286 0.895242C9.9019 1.08428 10.0081 1.34067 10.0081 1.60801V7.99201H16.3921C16.6594 7.99201 16.9158 8.09821 17.1049 8.28724C17.2939 8.47628 17.4001 8.73267 17.4001 9.00001Z" fill="#FFC01E"/>
</svg>
