<svg width="48" height="48" viewBox="0 0 48 48" fill="none" xmlns="http://www.w3.org/2000/svg">
<rect x="1" y="1" width="46" height="46" rx="7" stroke="url(#paint0_linear_149_1280)" stroke-width="2"/>
<g clip-path="url(#clip0_149_1280)">
<path d="M38.7692 31.4895C38.6769 31.908 38.6092 32.3387 38.4799 32.7203C37.7107 35.071 36.2153 36.7326 33.7599 37.2803C31.3046 37.828 29.1815 36.9603 27.6061 34.9295C25.723 32.5172 25.6307 28.3264 28.2215 25.8587C28.7856 25.2897 29.4565 24.8375 30.1957 24.5281C30.9349 24.2187 31.7279 24.0581 32.5292 24.0557C35.8092 24.0557 38.0676 26.7018 38.5969 29.0526C38.622 29.3332 38.6798 29.61 38.7692 29.8772V31.4895ZM30.2215 30.8741C30.2159 31.1746 30.2595 31.4739 30.3507 31.7603C30.4505 32.2053 30.689 32.6072 31.0318 32.908C31.3747 33.2088 31.8042 33.3931 32.2584 33.4341C32.663 33.4922 33.0757 33.424 33.4402 33.239C33.8047 33.054 34.1033 32.7611 34.2953 32.4003C34.5789 31.9499 34.7381 31.4324 34.7564 30.9006C34.7748 30.3687 34.6518 29.8414 34.4 29.3726C34.2654 29.0967 34.0725 28.8533 33.8346 28.6593C33.5966 28.4654 33.3193 28.3255 33.0219 28.2494C32.7245 28.1733 32.4142 28.1628 32.1123 28.2186C31.8104 28.2744 31.5243 28.3952 31.2738 28.5726C30.919 28.8339 30.6363 29.181 30.4522 29.5814C30.2682 29.9818 30.1888 30.4224 30.2215 30.8618V30.8741Z" fill="#FF9100"/>
<path d="M15.9262 10.5293C16.9769 10.5155 18.01 10.801 18.9046 11.3524C19.7992 11.9037 20.5185 12.6983 20.9785 13.6431C21.8455 15.2291 22.0572 17.0914 21.5684 18.8316C21.0796 20.5717 19.9291 22.0514 18.3631 22.9539C17.5851 23.3789 16.7196 23.6189 15.8338 23.6554C14.2781 23.7948 12.7303 23.3149 11.5262 22.3201C10.8852 21.811 10.3534 21.1782 9.96218 20.4593C9.571 19.7404 9.32854 18.95 9.24923 18.1354C9.11483 16.4872 9.55935 14.8437 10.5063 13.4879C11.4532 12.1322 12.8432 11.149 14.4369 10.7077C14.924 10.5864 15.4242 10.5264 15.9262 10.5293ZM13.2554 17.2308C13.2457 17.4914 13.2706 17.7521 13.3292 18.0062C13.4047 18.4008 13.5932 18.765 13.8718 19.0545C14.1504 19.344 14.507 19.5464 14.8985 19.637C15.3183 19.7563 15.7651 19.7409 16.1758 19.593C16.5864 19.4451 16.9404 19.172 17.1877 18.8124C17.4424 18.4616 17.6201 18.061 17.7092 17.6368C17.7982 17.2126 17.7967 16.7744 17.7046 16.3508C17.6606 16.0135 17.5352 15.692 17.3394 15.4139C17.1435 15.1359 16.8829 14.9096 16.5802 14.7545C16.2774 14.5995 15.9415 14.5204 15.6013 14.5241C15.2612 14.5277 14.9271 14.614 14.6277 14.7754C14.1821 15.0035 13.814 15.3584 13.5698 15.7954C13.3256 16.2323 13.2162 16.7318 13.2554 17.2308Z" fill="#FFC01E"/>
<path d="M19.2 27.5632C19.6676 26.7509 20.203 25.9755 20.7138 25.1878C23.6061 20.7283 26.5025 16.2709 29.403 11.8155C29.5849 11.4623 29.8718 11.1742 30.2243 10.9909C30.5768 10.8076 30.9775 10.7382 31.3711 10.7922C31.7647 10.8463 32.1318 11.021 32.4219 11.2925C32.712 11.5639 32.9107 11.9187 32.9907 12.3078C33.0745 12.6338 33.087 12.974 33.0276 13.3054C32.9681 13.6367 32.838 13.9513 32.6461 14.2278C31.5712 15.8688 30.4984 17.5283 29.4276 19.2063L25.4584 25.317C25.3661 25.4586 25.2615 25.594 25.1569 25.7355C25.0215 25.6124 24.923 25.7355 24.8307 25.8093C23.0784 26.7372 21.1692 27.3318 19.2 27.5632Z" fill="#FFC01E"/>
<path d="M19.2 27.5633C21.1696 27.33 23.0789 26.7332 24.8308 25.8033C24.9231 25.7541 25.0215 25.6064 25.1569 25.7294L23.0277 29.0525L19.2431 35.0156C19.0688 35.3403 18.7966 35.6019 18.4652 35.7632C18.1338 35.9245 17.76 35.9773 17.3969 35.9141C16.9832 35.8328 16.6032 35.6302 16.3051 35.3321C16.007 35.034 15.8044 34.6539 15.7231 34.2402C15.647 33.9893 15.6251 33.7251 15.6591 33.4652C15.6931 33.2052 15.782 32.9554 15.92 32.7325C16.9723 30.9971 18.0677 29.2679 19.2 27.5633Z" fill="#FF9100"/>
</g>
<defs>
<linearGradient id="paint0_linear_149_1280" x1="6" y1="-8.57143" x2="56.5714" y2="66" gradientUnits="userSpaceOnUse">
<stop stop-color="#FFC01E"/>
<stop offset="0.9999" stop-color="#FFA41C"/>
</linearGradient>
<clipPath id="clip0_149_1280">
<rect width="29.5385" height="29.5385" fill="white" transform="translate(9.23071 9.23096)"/>
</clipPath>
</defs>
</svg>
